Coordinates
version=1
nRows=12
nColumns=24
inDegrees=yes

Units are S.I. units (second, meters, Newtons, ...)
Angles are in degrees.

endheader
time	pelvis_tilt	pelvis_list	pelvis_rotation	pelvis_tx	pelvis_ty	pelvis_tz	hip_flexion_r	hip_adduction_r	hip_rotation_r	knee_angle_r	ankle_angle_r	subtalar_angle_r	mtp_angle_r	hip_flexion_l	hip_adduction_l	hip_rotation_l	knee_angle_l	ankle_angle_l	subtalar_angle_l	mtp_angle_l	lumbar_extension	lumbar_bending	lumbar_rotation
      1.23300000	     -0.59115406	      1.85567090	     -0.35380963	      0.23921764	      1.03803629	      0.26225284	     13.25543202	     -3.18277360	     -8.15067804	    -60.00663199	      0.13287842	     -7.75658983	      4.28529618	      6.44670117	      6.04189203	      5.26166495	     -9.05308397	      2.34069339	    -10.69934932	     -1.10102779	     -5.25751007	     -2.95393882	      1.82519190
      1.23716667	     -0.65039981	      1.73397923	     -0.46265670	      0.24453667	      1.03861534	      0.26207633	     13.85978242	     -2.99944730	     -7.91374120	    -59.69583801	      0.90268503	     -7.71762858	      4.25910256	      6.06995127	      5.91437257	      5.23660710	     -8.83477548	      2.47126140	    -10.71051640	     -1.12268051	     -5.24368648	     -2.75978508	      1.80903781
      1.24133333	     -0.69512023	      1.58835618	     -0.57220775	      0.24987138	      1.03921982	      0.26193742	     14.42235859	     -2.77421442	     -7.67982245	    -59.28751103	      1.52881462	     -7.89033346	      4.25189911	      5.67515970	      5.75756120	      5.18838312	     -8.61499322	      2.60728226	    -10.72659691	     -1.13259886	     -5.23359760	     -2.55296206	      1.80532794
      1.24550000	     -0.75968613	      1.45337136	     -0.68967501	      0.25519197	      1.03975532	      0.26181068	     15.00117185	     -2.55909618	     -7.43396186	    -58.84368898	      2.19002510	     -7.90810681	      4.19320100	      5.30192419	      5.61211160	      5.12140116	     -8.39379610	      2.75264607	    -10.69782169	     -1.17485120	     -5.20360259	     -2.35100130	      1.87364584
      1.24966667	     -0.80105905	      1.32411464	     -0.80589839	      0.26050469	      1.04030682	      0.26171608	     15.53649807	     -2.34316142	     -7.19487061	    -58.32696027	      2.75431884	     -8.07464887	      4.17416545	      4.90047025	      5.47202014	      5.06116098	     -8.16604601	      2.88605616	    -10.70541223	     -1.19247287	     -5.20379020	     -2.16462605	      1.87393992
      1.25383333	     -0.85778961	      1.17597572	     -0.92014597	      0.26579692	      1.04082208	      0.26162900	     16.07106839	     -2.09959823	     -6.95037219	    -57.74712117	      3.29532424	     -8.16229736	      4.12258708	      4.52000618	      5.31177266	      4.99408967	     -7.94531637	      3.01758801	    -10.68730421	     -1.23253216	     -5.20163389	     -1.95294781	      1.91794072
      1.25800000	     -0.90419734	      1.03726171	     -1.03425953	      0.27110044	      1.04130088	      0.26154677	     16.57875079	     -1.86764740	     -6.71531273	    -57.11525331	      3.79543781	     -8.29054530	      4.07977964	      4.12463734	      5.16400638	      4.92489841	     -7.72009846	      3.15881372	    -10.68218397	     -1.26676439	     -5.19081803	     -1.75334535	      1.93899996
      1.26216667	     -0.95267846	      0.90196211	     -1.14308943	      0.27639229	      1.04176062	      0.26147228	     17.07195696	     -1.63881554	     -6.48873990	    -56.42573125	      4.25398626	     -8.41984912	      4.04659953	      3.72906893	      5.02064490	      4.86094922	     -7.48468470	      3.29864097	    -10.68136233	     -1.29476314	     -5.17772413	     -1.55967375	      1.94870583
      1.26633333	     -0.97410264	      0.74630729	     -1.25027404	      0.28167225	      1.04223918	      0.26142387	     17.51043445	     -1.38058001	     -6.26108756	    -55.65957147	      4.62931087	     -8.53736071	      3.86574105	      3.30675014	      4.85383299	      4.78513716	     -7.25698688	      3.46198416	    -10.60957933	     -1.42978394	     -5.21100492	     -1.34282633	      2.04627307
      1.27050000	     -1.05523048	      0.63140551	     -1.35345585	      0.28691385	      1.04254434	      0.26137587	     18.01683832	     -1.16988410	     -6.03628718	    -54.88467146	      5.04611274	     -8.66235109	      3.82967144	      2.96320990	      4.73514878	      4.71541366	     -7.05021512	      3.59536657	    -10.64238443	     -1.46150331	     -5.17429488	     -1.17974665	      2.02108688
      1.27466667	     -1.11476473	      0.49242533	     -1.44466050	      0.29215389	      1.04288207	      0.26131331	     18.46927492	     -0.93418718	     -5.82699402	    -54.02870814	      5.39073420	     -8.77430908	      3.78609516	      2.59406601	      4.59292697	      4.66166323	     -6.83869684	      3.72969095	    -10.65979597	     -1.49881097	     -5.16185976	     -0.98033147	      2.01155380
      1.27883333	     -1.15932471	      0.34973427	     -1.52084413	      0.29736232	      1.04321258	      0.26126346	     18.88116708	     -0.69137136	     -5.62530578	    -53.10226117	      5.65241819	     -8.91470085	      3.69675966	      2.22232190	      4.44686868	      4.61094774	     -6.65232070	      3.85825868	    -10.67041779	     -1.57302519	     -5.18385766	     -0.79089626	      2.01651264
